<mxfile host="app.diagrams.net" modified="2024-06-14T18:24:09.092Z" agent="Mozilla/5.0 (Windows NT 10.0; Win64; x64) AppleWebKit/537.36 (KHTML, like Gecko) Chrome/126.0.0.0 Safari/537.36" version="24.5.4" etag="j_UiJMk7wPJLNhdi7owU" type="github">
  <diagram name="Page-1" id="vYWmGapOTyMhDg1TZlat">
    <mxGraphModel>
      <root>
        <mxCell id="0" />
        <mxCell id="1" parent="0" />
      </root>
    </mxGraphModel>
  </diagram>
</mxfile>
